<svg width="388" height="100" viewBox="0 0 388 100" fill="none" xmlns="http://www.w3.org/2000/svg">
<circle cx="50" cy="50" r="50" fill="white"/>
<path d="M63.6818 40.4091C63.5303 38.7424 62.8561 37.447 61.6591 36.5227C60.4773 35.5833 58.7879 35.1136 56.5909 35.1136C55.1364 35.1136 53.9242 35.303 52.9545 35.6818C51.9848 36.0606 51.2576 36.5833 50.7727 37.25C50.2879 37.9015 50.0379 38.6515 50.0227 39.5C49.9924 40.197 50.1288 40.8106 50.4318 41.3409C50.75 41.8712 51.2045 42.3409 51.7955 42.75C52.4015 43.1439 53.1288 43.4924 53.9773 43.7955C54.8258 44.0985 55.7803 44.3636 56.8409 44.5909L60.8409 45.5C63.1439 46 65.1742 46.6667 66.9318 47.5C68.7045 48.3333 70.1894 49.3258 71.3864 50.4773C72.5985 51.6288 73.5152 52.9545 74.1364 54.4545C74.7576 55.9545 75.0758 57.6364 75.0909 59.5C75.0758 62.4394 74.3333 64.9621 72.8636 67.0682C71.3939 69.1742 69.2803 70.7879 66.5227 71.9091C63.7803 73.0303 60.4697 73.5909 56.5909 73.5909C52.697 73.5909 49.303 73.0076 46.4091 71.8409C43.5152 70.6742 41.2652 68.9015 39.6591 66.5227C38.053 64.1439 37.2273 61.1364 37.1818 57.5H47.9545C48.0455 59 48.447 60.25 49.1591 61.25C49.8712 62.25 50.8485 63.0076 52.0909 63.5227C53.3485 64.0379 54.803 64.2955 56.4545 64.2955C57.9697 64.2955 59.2576 64.0909 60.3182 63.6818C61.3939 63.2727 62.2197 62.7045 62.7955 61.9773C63.3712 61.25 63.6667 60.4167 63.6818 59.4773C63.6667 58.5985 63.3939 57.8485 62.8636 57.2273C62.3333 56.5909 61.5152 56.0455 60.4091 55.5909C59.3182 55.1212 57.9242 54.6894 56.2273 54.2955L51.3636 53.1591C47.3333 52.2348 44.1591 50.7424 41.8409 48.6818C39.5227 46.6061 38.3712 43.803 38.3864 40.2727C38.3712 37.3939 39.1439 34.8712 40.7045 32.7045C42.2652 30.5379 44.4242 28.8485 47.1818 27.6364C49.9394 26.4242 53.0833 25.8182 56.6136 25.8182C60.2197 25.8182 63.3485 26.4318 66 27.6591C68.6667 28.8712 70.7348 30.5758 72.2045 32.7727C73.6742 34.9697 74.4242 37.5151 74.4545 40.4091H63.6818ZM80.7727 73V38.0909H91.8864V73H80.7727ZM86.3409 34.0227C84.7803 34.0227 83.4394 33.5076 82.3182 32.4773C81.197 31.4318 80.6364 30.1742 80.6364 28.7045C80.6364 27.25 81.197 26.0076 82.3182 24.9773C83.4394 23.9318 84.7803 23.4091 86.3409 23.4091C87.9167 23.4091 89.2576 23.9318 90.3636 24.9773C91.4848 26.0076 92.0455 27.25 92.0455 28.7045C92.0455 30.1742 91.4848 31.4318 90.3636 32.4773C89.2576 33.5076 87.9167 34.0227 86.3409 34.0227Z" fill="#5D3FD3"/>
<path d="M98.9602 73V38.0909H109.528V44.5H109.915C110.642 42.3788 111.869 40.7045 113.597 39.4773C115.324 38.25 117.384 37.6364 119.778 37.6364C122.203 37.6364 124.278 38.2576 126.006 39.5C127.733 40.7424 128.831 42.4091 129.301 44.5H129.665C130.316 42.4242 131.589 40.7652 133.483 39.5227C135.377 38.2652 137.612 37.6364 140.188 37.6364C143.491 37.6364 146.172 38.697 148.233 40.8182C150.294 42.9242 151.324 45.8182 151.324 49.5V73H140.21V52.0455C140.21 50.303 139.763 48.9773 138.869 48.0682C137.975 47.1439 136.816 46.6818 135.392 46.6818C133.862 46.6818 132.657 47.1818 131.778 48.1818C130.915 49.1667 130.483 50.4924 130.483 52.1591V73H119.801V51.9318C119.801 50.3106 119.362 49.0303 118.483 48.0909C117.604 47.1515 116.445 46.6818 115.006 46.6818C114.036 46.6818 113.18 46.9167 112.438 47.3864C111.695 47.8409 111.112 48.4924 110.688 49.3409C110.278 50.1894 110.074 51.1894 110.074 52.3409V73H98.9602ZM174.528 73.6591C170.877 73.6591 167.725 72.9394 165.074 71.5C162.438 70.0455 160.407 67.9773 158.983 65.2955C157.574 62.5985 156.869 59.3939 156.869 55.6818C156.869 52.0758 157.581 48.9242 159.006 46.2273C160.43 43.5152 162.438 41.4091 165.028 39.9091C167.619 38.3939 170.672 37.6364 174.188 37.6364C176.672 37.6364 178.945 38.0227 181.006 38.7955C183.066 39.5682 184.847 40.7121 186.347 42.2273C187.847 43.7424 189.013 45.6136 189.847 47.8409C190.68 50.053 191.097 52.5909 191.097 55.4545V58.2273H160.756V51.7727H180.756C180.741 50.5909 180.46 49.5379 179.915 48.6136C179.369 47.6894 178.619 46.9697 177.665 46.4545C176.725 45.9242 175.642 45.6591 174.415 45.6591C173.172 45.6591 172.059 45.9394 171.074 46.5C170.089 47.0455 169.309 47.7955 168.733 48.75C168.157 49.6894 167.854 50.7576 167.824 51.9545V58.5227C167.824 59.947 168.104 61.197 168.665 62.2727C169.225 63.3333 170.021 64.1591 171.051 64.75C172.081 65.3409 173.309 65.6364 174.733 65.6364C175.718 65.6364 176.612 65.5 177.415 65.2273C178.218 64.9545 178.907 64.553 179.483 64.0227C180.059 63.4924 180.491 62.8409 180.778 62.0682L190.983 62.3636C190.559 64.6515 189.627 66.6439 188.188 68.3409C186.763 70.0227 184.892 71.3333 182.574 72.2727C180.256 73.197 177.574 73.6591 174.528 73.6591ZM196.773 86.0909V38.0909H207.773V44.0682H208.114C208.568 43.0076 209.212 41.9848 210.045 41C210.894 40.0152 211.97 39.2121 213.273 38.5909C214.591 37.9545 216.167 37.6364 218 37.6364C220.424 37.6364 222.689 38.2727 224.795 39.5455C226.917 40.8182 228.629 42.7803 229.932 45.4318C231.235 48.0833 231.886 51.4621 231.886 55.5682C231.886 59.5227 231.258 62.8333 230 65.5C228.758 68.1667 227.076 70.1667 224.955 71.5C222.848 72.8333 220.508 73.5 217.932 73.5C216.174 73.5 214.652 73.2121 213.364 72.6364C212.076 72.0606 210.992 71.303 210.114 70.3636C209.25 69.4242 208.583 68.4167 208.114 67.3409H207.886V86.0909H196.773ZM207.659 55.5455C207.659 57.4242 207.909 59.0606 208.409 60.4545C208.924 61.8485 209.659 62.9318 210.614 63.7045C211.583 64.4621 212.742 64.8409 214.091 64.8409C215.455 64.8409 216.614 64.4621 217.568 63.7045C218.523 62.9318 219.242 61.8485 219.727 60.4545C220.227 59.0606 220.477 57.4242 220.477 55.5455C220.477 53.6667 220.227 52.0379 219.727 50.6591C219.242 49.2803 218.523 48.2121 217.568 47.4545C216.629 46.697 215.47 46.3182 214.091 46.3182C212.727 46.3182 211.568 46.6894 210.614 47.4318C209.659 48.1742 208.924 49.2348 208.409 50.6136C207.909 51.9924 207.659 53.6364 207.659 55.5455ZM248.824 26.4545V73H237.71V26.4545H248.824ZM272.216 73.6591C268.564 73.6591 265.413 72.9394 262.761 71.5C260.125 70.0455 258.095 67.9773 256.67 65.2955C255.261 62.5985 254.557 59.3939 254.557 55.6818C254.557 52.0758 255.269 48.9242 256.693 46.2273C258.117 43.5152 260.125 41.4091 262.716 39.9091C265.307 38.3939 268.36 37.6364 271.875 37.6364C274.36 37.6364 276.633 38.0227 278.693 38.7955C280.754 39.5682 282.534 40.7121 284.034 42.2273C285.534 43.7424 286.701 45.6136 287.534 47.8409C288.367 50.053 288.784 52.5909 288.784 55.4545V58.2273H258.443V51.7727H278.443C278.428 50.5909 278.148 49.5379 277.602 48.6136C277.057 47.6894 276.307 46.9697 275.352 46.4545C274.413 45.9242 273.33 45.6591 272.102 45.6591C270.86 45.6591 269.746 45.9394 268.761 46.5C267.777 47.0455 266.996 47.7955 266.42 48.75C265.845 49.6894 265.542 50.7576 265.511 51.9545V58.5227C265.511 59.947 265.792 61.197 266.352 62.2727C266.913 63.3333 267.708 64.1591 268.739 64.75C269.769 65.3409 270.996 65.6364 272.42 65.6364C273.405 65.6364 274.299 65.5 275.102 65.2273C275.905 64.9545 276.595 64.553 277.17 64.0227C277.746 63.4924 278.178 62.8409 278.466 62.0682L288.67 62.3636C288.246 64.6515 287.314 66.6439 285.875 68.3409C284.451 70.0227 282.58 71.3333 280.261 72.2727C277.943 73.197 275.261 73.6591 272.216 73.6591ZM336.71 43.3182H325.347C325.195 42.1515 324.884 41.0985 324.415 40.1591C323.945 39.2197 323.324 38.4167 322.551 37.75C321.778 37.0833 320.862 36.5758 319.801 36.2273C318.756 35.8636 317.597 35.6818 316.324 35.6818C314.066 35.6818 312.119 36.2348 310.483 37.3409C308.862 38.447 307.612 40.0455 306.733 42.1364C305.869 44.2273 305.438 46.7576 305.438 49.7273C305.438 52.8182 305.877 55.4091 306.756 57.5C307.65 59.5758 308.9 61.1439 310.506 62.2045C312.127 63.25 314.044 63.7727 316.256 63.7727C317.498 63.7727 318.627 63.6136 319.642 63.2955C320.672 62.9773 321.574 62.5152 322.347 61.9091C323.134 61.2879 323.778 60.5379 324.278 59.6591C324.794 58.7652 325.15 57.7576 325.347 56.6364L336.71 56.7045C336.513 58.7652 335.915 60.7955 334.915 62.7955C333.93 64.7955 332.574 66.6212 330.847 68.2727C329.119 69.9091 327.013 71.2121 324.528 72.1818C322.059 73.1515 319.225 73.6364 316.028 73.6364C311.816 73.6364 308.044 72.7121 304.71 70.8636C301.392 69 298.771 66.2879 296.847 62.7273C294.922 59.1667 293.96 54.8333 293.96 49.7273C293.96 44.6061 294.938 40.2652 296.892 36.7045C298.847 33.1439 301.491 30.4394 304.824 28.5909C308.157 26.7424 311.892 25.8182 316.028 25.8182C318.847 25.8182 321.453 26.2121 323.847 27C326.241 27.7727 328.347 28.9091 330.165 30.4091C331.983 31.8939 333.46 33.7197 334.597 35.8864C335.733 38.053 336.438 40.5303 336.71 43.3182ZM353.716 26.4545L364.125 60.5455H364.511L374.92 26.4545H387.511L371.807 73H356.83L341.125 26.4545H353.716Z" fill="white"/>
</svg>
