<svg width="358" height="100" viewBox="0 0 358 100" fill="none" xmlns="http://www.w3.org/2000/svg">
<circle cx="50" cy="50" r="50" fill="#5D3FD3"/>
<path d="M63.6818 40.4091C63.5303 38.7424 62.8561 37.447 61.6591 36.5227C60.4773 35.5833 58.7879 35.1136 56.5909 35.1136C55.1364 35.1136 53.9242 35.303 52.9545 35.6818C51.9848 36.0606 51.2576 36.5833 50.7727 37.25C50.2879 37.9015 50.0379 38.6515 50.0227 39.5C49.9924 40.197 50.1288 40.8106 50.4318 41.3409C50.75 41.8712 51.2045 42.3409 51.7955 42.75C52.4015 43.1439 53.1288 43.4924 53.9773 43.7955C54.8258 44.0985 55.7803 44.3636 56.8409 44.5909L60.8409 45.5C63.1439 46 65.1742 46.6667 66.9318 47.5C68.7045 48.3333 70.1894 49.3258 71.3864 50.4773C72.5985 51.6288 73.5152 52.9545 74.1364 54.4545C74.7576 55.9545 75.0758 57.6364 75.0909 59.5C75.0758 62.4394 74.3333 64.9621 72.8636 67.0682C71.3939 69.1742 69.2803 70.7879 66.5227 71.9091C63.7803 73.0303 60.4697 73.5909 56.5909 73.5909C52.697 73.5909 49.303 73.0076 46.4091 71.8409C43.5152 70.6742 41.2652 68.9015 39.6591 66.5227C38.053 64.1439 37.2273 61.1364 37.1818 57.5H47.9545C48.0455 59 48.447 60.25 49.1591 61.25C49.8712 62.25 50.8485 63.0076 52.0909 63.5227C53.3485 64.0379 54.803 64.2955 56.4545 64.2955C57.9697 64.2955 59.2576 64.0909 60.3182 63.6818C61.3939 63.2727 62.2197 62.7045 62.7955 61.9773C63.3712 61.25 63.6667 60.4167 63.6818 59.4773C63.6667 58.5985 63.3939 57.8485 62.8636 57.2273C62.3333 56.5909 61.5152 56.0455 60.4091 55.5909C59.3182 55.1212 57.9242 54.6894 56.2273 54.2955L51.3636 53.1591C47.3333 52.2348 44.1591 50.7424 41.8409 48.6818C39.5227 46.6061 38.3712 43.803 38.3864 40.2727C38.3712 37.3939 39.1439 34.8712 40.7045 32.7045C42.2652 30.5379 44.4242 28.8485 47.1818 27.6364C49.9394 26.4242 53.0833 25.8182 56.6136 25.8182C60.2197 25.8182 63.3485 26.4318 66 27.6591C68.6667 28.8712 70.7348 30.5758 72.2045 32.7727C73.6742 34.9697 74.4242 37.5151 74.4545 40.4091H63.6818ZM80.7727 73V38.0909H91.8864V73H80.7727ZM86.3409 34.0227C84.7803 34.0227 83.4394 33.5076 82.3182 32.4773C81.197 31.4318 80.6364 30.1742 80.6364 28.7045C80.6364 27.25 81.197 26.0076 82.3182 24.9773C83.4394 23.9318 84.7803 23.4091 86.3409 23.4091C87.9167 23.4091 89.2576 23.9318 90.3636 24.9773C91.4848 26.0076 92.0455 27.25 92.0455 28.7045C92.0455 30.1742 91.4848 31.4318 90.3636 32.4773C89.2576 33.5076 87.9167 34.0227 86.3409 34.0227Z" fill="white"/>
<path d="M98.9602 73V38.0909H109.528V44.5H109.915C110.642 42.3788 111.869 40.7045 113.597 39.4773C115.324 38.25 117.384 37.6364 119.778 37.6364C122.203 37.6364 124.278 38.2576 126.006 39.5C127.733 40.7424 128.831 42.4091 129.301 44.5H129.665C130.316 42.4242 131.589 40.7652 133.483 39.5227C135.377 38.2652 137.612 37.6364 140.188 37.6364C143.491 37.6364 146.172 38.697 148.233 40.8182C150.294 42.9242 151.324 45.8182 151.324 49.5V73H140.21V52.0455C140.21 50.303 139.763 48.9773 138.869 48.0682C137.975 47.1439 136.816 46.6818 135.392 46.6818C133.862 46.6818 132.657 47.1818 131.778 48.1818C130.915 49.1667 130.483 50.4924 130.483 52.1591V73H119.801V51.9318C119.801 50.3106 119.362 49.0303 118.483 48.0909C117.604 47.1515 116.445 46.6818 115.006 46.6818C114.036 46.6818 113.18 46.9167 112.438 47.3864C111.695 47.8409 111.112 48.4924 110.688 49.3409C110.278 50.1894 110.074 51.1894 110.074 52.3409V73H98.9602ZM158.21 86.0909V38.0909H169.21V44.0682H169.551C170.006 43.0076 170.65 41.9848 171.483 41C172.331 40.0152 173.407 39.2121 174.71 38.5909C176.028 37.9545 177.604 37.6364 179.438 37.6364C181.862 37.6364 184.127 38.2727 186.233 39.5455C188.354 40.8182 190.066 42.7803 191.369 45.4318C192.672 48.0833 193.324 51.4621 193.324 55.5682C193.324 59.5227 192.695 62.8333 191.438 65.5C190.195 68.1667 188.513 70.1667 186.392 71.5C184.286 72.8333 181.945 73.5 179.369 73.5C177.612 73.5 176.089 73.2121 174.801 72.6364C173.513 72.0606 172.43 71.303 171.551 70.3636C170.688 69.4242 170.021 68.4167 169.551 67.3409H169.324V86.0909H158.21ZM169.097 55.5455C169.097 57.4242 169.347 59.0606 169.847 60.4545C170.362 61.8485 171.097 62.9318 172.051 63.7045C173.021 64.4621 174.18 64.8409 175.528 64.8409C176.892 64.8409 178.051 64.4621 179.006 63.7045C179.96 62.9318 180.68 61.8485 181.165 60.4545C181.665 59.0606 181.915 57.4242 181.915 55.5455C181.915 53.6667 181.665 52.0379 181.165 50.6591C180.68 49.2803 179.96 48.2121 179.006 47.4545C178.066 46.697 176.907 46.3182 175.528 46.3182C174.165 46.3182 173.006 46.6894 172.051 47.4318C171.097 48.1742 170.362 49.2348 169.847 50.6136C169.347 51.9924 169.097 53.6364 169.097 55.5455ZM210.261 26.4545V73H199.148V26.4545H210.261ZM233.653 73.6591C230.002 73.6591 226.85 72.9394 224.199 71.5C221.563 70.0455 219.532 67.9773 218.108 65.2955C216.699 62.5985 215.994 59.3939 215.994 55.6818C215.994 52.0758 216.706 48.9242 218.131 46.2273C219.555 43.5152 221.562 41.4091 224.153 39.9091C226.744 38.3939 229.797 37.6364 233.312 37.6364C235.797 37.6364 238.07 38.0227 240.131 38.7955C242.191 39.5682 243.972 40.7121 245.472 42.2273C246.972 43.7424 248.138 45.6136 248.972 47.8409C249.805 50.053 250.222 52.5909 250.222 55.4545V58.2273H219.881V51.7727H239.881C239.866 50.5909 239.585 49.5379 239.04 48.6136C238.494 47.6894 237.744 46.9697 236.79 46.4545C235.85 45.9242 234.767 45.6591 233.54 45.6591C232.297 45.6591 231.184 45.9394 230.199 46.5C229.214 47.0455 228.434 47.7955 227.858 48.75C227.282 49.6894 226.979 50.7576 226.949 51.9545V58.5227C226.949 59.947 227.229 61.197 227.79 62.2727C228.35 63.3333 229.146 64.1591 230.176 64.75C231.206 65.3409 232.434 65.6364 233.858 65.6364C234.843 65.6364 235.737 65.5 236.54 65.2273C237.343 64.9545 238.032 64.553 238.608 64.0227C239.184 63.4924 239.616 62.8409 239.903 62.0682L250.108 62.3636C249.684 64.6515 248.752 66.6439 247.312 68.3409C245.888 70.0227 244.017 71.3333 241.699 72.2727C239.381 73.197 236.699 73.6591 233.653 73.6591ZM298.148 43.3182H286.784C286.633 42.1515 286.322 41.0985 285.852 40.1591C285.383 39.2197 284.761 38.4167 283.989 37.75C283.216 37.0833 282.299 36.5758 281.239 36.2273C280.193 35.8636 279.034 35.6818 277.761 35.6818C275.504 35.6818 273.557 36.2348 271.92 37.3409C270.299 38.447 269.049 40.0455 268.17 42.1364C267.307 44.2273 266.875 46.7576 266.875 49.7273C266.875 52.8182 267.314 55.4091 268.193 57.5C269.087 59.5758 270.337 61.1439 271.943 62.2045C273.564 63.25 275.481 63.7727 277.693 63.7727C278.936 63.7727 280.064 63.6136 281.08 63.2955C282.11 62.9773 283.011 62.5152 283.784 61.9091C284.572 61.2879 285.216 60.5379 285.716 59.6591C286.231 58.7652 286.587 57.7576 286.784 56.6364L298.148 56.7045C297.951 58.7652 297.352 60.7955 296.352 62.7955C295.367 64.7955 294.011 66.6212 292.284 68.2727C290.557 69.9091 288.451 71.2121 285.966 72.1818C283.496 73.1515 280.663 73.6364 277.466 73.6364C273.254 73.6364 269.481 72.7121 266.148 70.8636C262.83 69 260.208 66.2879 258.284 62.7273C256.36 59.1667 255.398 54.8333 255.398 49.7273C255.398 44.6061 256.375 40.2652 258.33 36.7045C260.284 33.1439 262.928 30.4394 266.261 28.5909C269.595 26.7424 273.33 25.8182 277.466 25.8182C280.284 25.8182 282.89 26.2121 285.284 27C287.678 27.7727 289.784 28.9091 291.602 30.4091C293.42 31.8939 294.898 33.7197 296.034 35.8864C297.17 38.053 297.875 40.5303 298.148 43.3182ZM315.153 26.4545L325.562 60.5455H325.949L336.358 26.4545H348.949L333.244 73H318.267L302.562 26.4545H315.153Z" fill="#5D3FD3"/>
</svg>
