<svg width="200" height="146" viewBox="0 0 200 146" fill="none" xmlns="http://www.w3.org/2000/svg">
<g clip-path="url(#clip0_417_47)">
<path d="M168.933 65.6186L149.312 63.1996L150.387 45.9977H168.933V65.6186Z" fill="#FFB6B6"/>
<path d="M180.097 86.638C179.789 86.6374 179.488 86.5467 179.231 86.3769C178.973 86.2072 178.771 85.9659 178.649 85.6828L175.925 79.3264L184.001 79.3545L189.549 73.4867L192.21 79.6999C192.371 80.0805 192.377 80.5092 192.226 80.894C192.075 81.2789 191.779 81.5893 191.402 81.7588L180.736 86.5013C180.535 86.5912 180.318 86.6378 180.097 86.638V86.638Z" fill="#E6E6E6"/>
<path d="M182.774 80.1555C182.706 80.1555 182.639 80.1536 182.572 80.1498L176.083 79.7826L175.907 79.3886L176.03 79.3337L189.526 73.324L189.702 73.7182L185.573 78.8203C185.235 79.2369 184.808 79.573 184.324 79.8039C183.84 80.0349 183.31 80.155 182.774 80.1555V80.1555Z" fill="#CCCCCC"/>
<path d="M171.346 21.306L152.188 21.5455C151.829 21.5451 151.484 21.402 151.23 21.1478C150.976 20.8935 150.833 20.5488 150.832 20.1892V13.8595C150.832 11.1815 151.896 8.61323 153.79 6.71963C155.683 4.82602 158.251 3.76221 160.929 3.76221C163.607 3.76221 166.176 4.82602 168.069 6.71963C169.963 8.61323 171.027 11.1815 171.027 13.8595L172.702 19.9498C172.702 20.3093 172.559 20.6541 172.304 20.9083C172.05 21.1626 171.705 21.3056 171.346 21.306H171.346Z" fill="#2F2E41"/>
<path d="M180.725 77.5854C180.406 77.2968 180.154 76.9419 179.987 76.5456C179.821 76.1493 179.743 75.7212 179.759 75.2915C179.776 74.8619 179.886 74.4411 180.083 74.0587C180.28 73.6764 180.558 73.3419 180.898 73.0788L177.565 63.1726L182.817 64.5603L185.177 73.7545C185.584 74.355 185.755 75.084 185.66 75.8028C185.564 76.5216 185.207 77.1801 184.657 77.6531C184.108 78.126 183.403 78.3805 182.678 78.368C181.953 78.3555 181.258 78.077 180.725 77.5854V77.5854Z" fill="#FFB6B6"/>
<path d="M158.01 141.306L154.078 140.669L154.667 125.198L160.471 126.139L158.01 141.306Z" fill="#FFB6B6"/>
<path d="M177.607 133.105L174.051 134.899L164.631 121.229L169.88 118.581L177.607 133.105Z" fill="#FFB6B6"/>
<path d="M160.846 21.4798C164.708 21.4798 167.838 18.3491 167.838 14.4872C167.838 10.6253 164.708 7.49463 160.846 7.49463C156.984 7.49463 153.853 10.6253 153.853 14.4872C153.853 18.3491 156.984 21.4798 160.846 21.4798Z" fill="#FFB8B8"/>
<path d="M166.382 128.134L150.006 86.3753C144.145 70.3654 149.381 59.3312 149.435 59.2218L149.462 59.1681L149.518 59.1476C150.191 61.765 165.438 61.5869 168.933 57.5552C170.972 59.2684 173.686 63.3022 174.268 68.1225C174.876 73.2938 174.415 78.5347 172.914 83.5206L166.463 105.389L174.444 123.367L166.382 128.134Z" fill="#2F2E41"/>
<path d="M158.485 102.232L152.572 132.216L160.447 133.701L165.402 107.747L158.485 102.232Z" fill="#2F2E41"/>
<path d="M149.849 51.1045C151.109 51.441 163.562 56.5725 169.47 51.3733L174.106 28.4829L168.552 26.731L166.614 24.3739C166.404 24.1183 166.139 23.9133 165.839 23.774C165.539 23.6348 165.211 23.5649 164.881 23.5697L157.99 23.6618C157.685 23.6663 157.385 23.7337 157.107 23.8598C156.83 23.9859 156.581 24.1681 156.377 24.3948L154.17 26.8562L149.185 28.0165L149.849 51.1045Z" fill="#5D3FD3"/>
<path d="M171.992 30.2683L173.502 28.2582C173.502 28.2582 176.268 28.9849 177.673 32.9481C179.078 36.9112 184.835 68.5754 184.835 68.5754L178.635 71.454L170.239 43.4697L171.992 30.2683Z" fill="#5D3FD3"/>
<path d="M122.31 67.977C122.369 67.551 122.52 67.1431 122.753 66.7819C122.987 66.4207 123.296 66.115 123.66 65.8865C124.025 65.6579 124.434 65.5119 124.861 65.4589C125.288 65.4058 125.721 65.447 126.13 65.5795L132.432 57.2408L134.246 62.36L127.984 69.4937C127.717 70.1673 127.211 70.7194 126.564 71.045C125.917 71.3706 125.172 71.4471 124.472 71.26C123.772 71.0728 123.165 70.6351 122.766 70.0299C122.368 69.4246 122.205 68.6941 122.31 67.977H122.31Z" fill="#FFB6B6"/>
<path d="M151.4 29.8246L149.312 27.9894C149.312 27.9894 147.124 28.5412 145.719 32.5043C144.314 36.4675 126.378 63.0377 126.378 63.0377L132.578 65.9164L153.153 43.0249L151.4 29.8246Z" fill="#5D3FD3"/>
<path d="M168.132 14.026H158.359C158.175 14.0258 157.998 13.9587 157.86 13.8371C157.723 13.7156 157.634 13.5481 157.611 13.3659L157.484 12.3537C157.472 12.2564 157.429 12.1658 157.36 12.0955C157.292 12.0251 157.203 11.9789 157.106 11.9638C157.009 11.9486 156.91 11.9653 156.823 12.0114C156.737 12.0575 156.668 12.1304 156.626 12.2193L155.985 13.5911C155.924 13.7208 155.828 13.8305 155.707 13.9074C155.586 13.9844 155.446 14.0254 155.302 14.0257H153.818C153.618 14.026 153.427 13.947 153.285 13.8061C153.144 13.6652 153.065 13.4739 153.064 13.2743C153.064 13.2496 153.065 13.2249 153.068 13.2003L153.653 7.08584C153.666 6.9551 153.712 6.82984 153.787 6.72228C153.863 6.61473 153.965 6.52857 154.083 6.47221C158.559 4.38272 163.098 4.3854 167.574 6.48028C167.688 6.53367 167.786 6.61451 167.861 6.7155C167.935 6.8165 167.983 6.93445 168.001 7.05869L168.878 13.1651C168.893 13.272 168.885 13.381 168.855 13.4846C168.825 13.5882 168.772 13.6841 168.701 13.7657C168.631 13.8473 168.543 13.9127 168.445 13.9575C168.347 14.0022 168.24 14.0253 168.132 14.0252L168.132 14.026Z" fill="#2F2E41"/>
<path d="M10.4746 4.83691C10.1347 4.83656 9.80857 4.97102 9.56767 5.21081C9.32677 5.4506 9.19081 5.77614 9.1896 6.11604L8.87378 143.312C8.87342 143.652 9.00788 143.978 9.24768 144.219C9.48747 144.46 9.81301 144.596 10.1529 144.597L120.679 144.851C121.019 144.851 121.345 144.717 121.586 144.477C121.827 144.237 121.963 143.912 121.964 143.572L122.28 6.37595C122.28 6.036 122.145 5.7098 121.906 5.46889C121.666 5.22798 121.34 5.09205 121 5.09091L10.4746 4.83691Z" fill="#E6E6E6"/>
<path d="M14.5692 8.94959C14.2293 8.94923 13.9032 9.08369 13.6623 9.32348C13.4214 9.56327 13.2854 9.88881 13.2842 10.2287L12.9885 139.218C12.9882 139.558 13.1226 139.884 13.3624 140.125C13.6022 140.366 13.9278 140.502 14.2677 140.503L116.587 140.739C116.927 140.739 117.253 140.605 117.494 140.365C117.735 140.125 117.871 139.8 117.872 139.46L118.168 10.4701C118.168 10.1301 118.034 9.80392 117.794 9.56301C117.554 9.32211 117.229 9.18617 116.889 9.18503L14.5692 8.94959Z" fill="white"/>
<path d="M103.296 64.962L27.9034 64.7886C27.3972 64.7816 26.9141 64.5753 26.5591 64.2144C26.204 63.8536 26.0056 63.3673 26.0067 62.861C26.0079 62.3548 26.2086 61.8694 26.5653 61.5102C26.922 61.1509 27.406 60.9468 27.9122 60.9421L103.305 61.1158C103.811 61.1228 104.294 61.3291 104.649 61.69C105.004 62.0509 105.203 62.5372 105.202 63.0434C105.201 63.5497 105 64.035 104.643 64.3943C104.286 64.7535 103.802 64.9576 103.296 64.9623V64.962Z" fill="#E6E6E6"/>
<path d="M104.026 29.1257L54.0078 29.0107C53.3031 29.0091 52.7338 28.1466 52.7362 27.0844C52.7386 26.0222 53.3119 25.1623 54.0167 25.1639L104.035 25.279C104.74 25.2806 105.309 26.1431 105.307 27.2053C105.304 28.2675 104.731 29.1284 104.026 29.1257Z" fill="#E6E6E6"/>
<path d="M104.001 40.1527L53.9823 40.0377C53.2776 40.0361 52.7083 39.1736 52.7107 38.1114C52.7131 37.0491 53.2864 36.1893 53.9912 36.1909L104.01 36.306C104.714 36.3076 105.284 37.1701 105.281 38.2323C105.279 39.2945 104.705 40.1544 104.001 40.1527Z" fill="#E6E6E6"/>
<path d="M103.267 77.3993L27.8738 77.2259C27.3676 77.2189 26.8846 77.0126 26.5295 76.6517C26.1745 76.2908 25.976 75.8045 25.9772 75.2983C25.9783 74.792 26.1791 74.3066 26.5358 73.9474C26.8925 73.5882 27.3765 73.3841 27.8827 73.3794L103.275 73.5528C103.786 73.548 104.277 73.7461 104.641 74.1035C105.005 74.4608 105.212 74.9482 105.217 75.4583C105.221 75.9684 105.023 76.4594 104.666 76.8235C104.309 77.1875 103.821 77.3947 103.311 77.3994C103.296 77.3995 103.281 77.3995 103.267 77.3993V77.3993Z" fill="#E6E6E6"/>
<path d="M103.24 89.8364L27.847 89.6628C27.3408 89.6558 26.8577 89.4494 26.5027 89.0886C26.1476 88.7277 25.9492 88.2414 25.9503 87.7352C25.9515 87.2289 26.1522 86.7435 26.5089 86.3843C26.8656 86.0251 27.3496 85.821 27.8558 85.8163L103.249 85.9899C103.501 85.9871 103.752 86.0342 103.987 86.1284C104.222 86.2227 104.435 86.3623 104.616 86.5392C104.797 86.7162 104.941 86.927 105.04 87.1596C105.139 87.3923 105.191 87.6422 105.193 87.895C105.196 88.1479 105.148 88.3987 105.054 88.6332C104.959 88.8676 104.819 89.0812 104.642 89.2615C104.464 89.4418 104.253 89.5854 104.021 89.6841C103.788 89.7828 103.538 89.8346 103.285 89.8365C103.27 89.8367 103.255 89.8366 103.24 89.8364V89.8364Z" fill="#E6E6E6"/>
<path d="M103.21 102.274L27.8176 102.1C27.3114 102.093 26.8284 101.887 26.4733 101.526C26.1183 101.165 25.9198 100.679 25.921 100.173C25.9221 99.6665 26.1228 99.1812 26.4796 98.8219C26.8363 98.4627 27.3203 98.2586 27.8265 98.2539L103.219 98.4276C103.729 98.4233 104.22 98.6216 104.583 98.9788C104.947 99.3361 105.154 99.823 105.158 100.333C105.163 100.842 104.966 101.333 104.609 101.697C104.252 102.061 103.765 102.269 103.256 102.274C103.241 102.274 103.226 102.274 103.21 102.274V102.274Z" fill="#E6E6E6"/>
<path d="M66.09 114.174L27.7889 114C27.2827 113.993 26.7996 113.787 26.4446 113.426C26.0895 113.065 25.891 112.579 25.8922 112.072C25.8934 111.566 26.0941 111.081 26.4508 110.722C26.8075 110.362 27.2915 110.158 27.7977 110.154L66.0989 110.327C66.6084 110.323 67.0987 110.522 67.4621 110.879C67.8255 111.236 68.0323 111.723 68.0371 112.232C68.042 112.742 67.8444 113.233 67.4878 113.597C67.1312 113.961 66.6448 114.168 66.1353 114.174C66.1202 114.174 66.1051 114.174 66.09 114.174Z" fill="#E6E6E6"/>
<path d="M66.0616 126.611L27.7604 126.438C27.2542 126.431 26.7712 126.224 26.4161 125.863C26.0611 125.502 25.8626 125.016 25.8638 124.51C25.8649 124.004 26.0657 123.518 26.4224 123.159C26.7791 122.8 27.2631 122.596 27.7693 122.591L66.0704 122.765C66.58 122.761 67.0702 122.959 67.4336 123.316C67.797 123.674 68.0038 124.16 68.0086 124.67C68.0134 125.179 67.8158 125.67 67.4593 126.034C67.1027 126.398 66.6163 126.606 66.1068 126.611C66.0917 126.611 66.0766 126.611 66.0616 126.611V126.611Z" fill="#E6E6E6"/>
<path d="M87.4909 14.4428V5.29142C87.5059 4.61166 87.3868 3.93561 87.1405 3.30187C86.8941 2.66813 86.5254 2.08911 86.0553 1.59788C85.5852 1.10664 85.023 0.712802 84.4007 0.438853C83.7784 0.164904 83.1083 0.0162062 82.4285 0.00125241C81.7487 -0.0137014 81.0727 0.105383 80.4389 0.351701C79.8052 0.598019 79.2262 0.966746 78.7349 1.43684C78.2437 1.90693 77.8499 2.46917 77.5759 3.09146C77.302 3.71376 77.1533 4.38392 77.1383 5.06368H78.2775C78.3182 4.02035 78.7609 3.0332 79.513 2.30886C80.265 1.58452 81.268 1.17915 82.3121 1.17758H82.3715C83.4435 1.19476 84.4649 1.63678 85.2112 2.40655C85.9576 3.17631 86.3678 4.21085 86.3519 5.28291V14.5159C86.3424 15.2282 86.053 15.9083 85.5463 16.409C85.0395 16.9098 84.356 17.191 83.6436 17.1919H83.6103C82.8911 17.1819 82.2053 16.8868 81.7036 16.3714C81.2019 15.8559 80.9254 15.1624 80.9348 14.4432L80.9411 5.35341C80.9399 4.99154 81.0825 4.64401 81.3376 4.38729C81.5926 4.13056 81.9392 3.98567 82.3011 3.98448C82.663 3.9833 83.0105 4.12592 83.2672 4.38097C83.5239 4.63602 83.6688 4.9826 83.67 5.34448V7.98538C83.67 8.13646 83.73 8.28134 83.8368 8.38816C83.9437 8.49498 84.0885 8.555 84.2396 8.555C84.3907 8.555 84.5356 8.49498 84.6424 8.38816C84.7492 8.28134 84.8092 8.13646 84.8092 7.98538V5.33546C84.8087 5.00671 84.7434 4.68129 84.617 4.37778C84.4907 4.07428 84.3058 3.79862 84.073 3.56656C83.8401 3.3345 83.5638 3.15058 83.2599 3.0253C82.9559 2.90002 82.6303 2.83582 82.3015 2.83639C81.9728 2.83696 81.6474 2.90227 81.3439 3.0286C81.0404 3.15493 80.7647 3.3398 80.5326 3.57266C80.3006 3.80552 80.1167 4.08181 79.9914 4.38575C79.8661 4.68969 79.8019 5.01532 79.8025 5.34407L79.7965 14.4359C79.7853 15.456 80.1792 16.4389 80.8917 17.169C81.6043 17.8991 82.5773 18.3167 83.5974 18.3302H83.6448C84.6571 18.3287 85.6281 17.9288 86.348 17.2171C87.0678 16.5054 87.4787 15.5391 87.4918 14.5269C87.4911 14.4975 87.4911 14.4677 87.4909 14.4428Z" fill="#5D3FD3"/>
<path d="M103.081 118.498C103.083 120.014 102.813 121.517 102.284 122.937C102.043 123.587 101.748 124.216 101.402 124.817C100.288 126.76 98.6818 128.374 96.7444 129.497C94.807 130.62 92.6075 131.211 90.3683 131.211C88.1291 131.211 85.9296 130.62 83.9922 129.497C82.0547 128.374 80.4481 126.76 79.3347 124.817C79.222 124.622 79.1151 124.423 79.0141 124.222C78.1499 122.508 77.6852 120.62 77.6547 118.701C77.6242 116.781 78.0288 114.88 78.8382 113.139C79.6475 111.398 80.8405 109.863 82.3278 108.649C83.8151 107.435 85.5579 106.574 87.4256 106.13C89.2932 105.685 91.2373 105.67 93.1118 106.084C94.9863 106.499 96.7426 107.332 98.249 108.522C99.7554 109.713 100.973 111.228 101.81 112.956C102.647 114.684 103.081 116.579 103.081 118.498H103.081Z" fill="#E4E4E4"/>
<path d="M91.0293 120.645C92.3716 120.645 93.4597 119.557 93.4597 118.214C93.4597 116.872 92.3716 115.784 91.0293 115.784C89.6869 115.784 88.5988 116.872 88.5988 118.214C88.5988 119.557 89.6869 120.645 91.0293 120.645Z" fill="#5D3FD3"/>
<path d="M79.0142 124.222C80.085 123.065 81.5166 121.228 82.8592 122.555C83.5331 123.181 84.5876 124.733 85.5971 123.719L93.4801 115.836C93.6285 115.689 93.8047 115.574 93.9983 115.496C94.1919 115.419 94.3991 115.381 94.6076 115.385C94.8161 115.388 95.0218 115.434 95.2125 115.518C95.4032 115.602 95.5752 115.724 95.7182 115.876L102.284 122.937C102.043 123.588 101.748 124.216 101.402 124.817H79.3348L79.0142 124.222Z" fill="#3F3D56"/>
<path d="M46.1001 32.2201C46.102 33.7355 45.8318 35.2389 45.3023 36.6588C45.0618 37.3092 44.7669 37.938 44.4205 38.5387C43.3071 40.4815 41.7005 42.0959 39.7631 43.2186C37.8257 44.3413 35.6262 44.9326 33.387 44.9326C31.1478 44.9326 28.9483 44.3413 27.0108 43.2186C25.0734 42.0959 23.4668 40.4815 22.3534 38.5387C22.2407 38.3434 22.1338 38.1451 22.0328 37.9438C21.1686 36.2296 20.7038 34.3419 20.6734 32.4223C20.6429 30.5028 21.0475 28.6013 21.8568 26.8605C22.6662 25.1196 23.8592 23.5847 25.3465 22.3708C26.8337 21.1569 28.5766 20.2955 30.4443 19.8513C32.3119 19.4072 34.256 19.3917 36.1305 19.8061C38.005 20.2205 39.7613 21.054 41.2677 22.2441C42.774 23.4342 43.9914 24.95 44.8283 26.6777C45.6652 28.4055 46.1 30.3003 46.1001 32.2201H46.1001Z" fill="#E4E4E4"/>
<path d="M34.0479 34.3663C35.3902 34.3663 36.4784 33.2782 36.4784 31.9359C36.4784 30.5935 35.3902 29.5054 34.0479 29.5054C32.7056 29.5054 31.6174 30.5935 31.6174 31.9359C31.6174 33.2782 32.7056 34.3663 34.0479 34.3663Z" fill="#5D3FD3"/>
<path d="M22.0328 37.9438C23.1036 36.7866 24.5352 34.9492 25.8778 36.2768C26.5517 36.903 27.6062 38.4548 28.6157 37.4404L36.4987 29.5574C36.6471 29.4109 36.8233 29.2955 37.0169 29.218C37.2105 29.1406 37.4177 29.1026 37.6262 29.1063C37.8347 29.1101 38.0404 29.1554 38.2311 29.2398C38.4218 29.3241 38.5938 29.4457 38.7368 29.5975L45.3022 36.6588C45.0618 37.3092 44.7668 37.9381 44.4205 38.5388H22.3534L22.0328 37.9438Z" fill="#3F3D56"/>
<path d="M83.1917 16.163C83.934 16.163 84.5356 15.5613 84.5356 14.8191C84.5356 14.0769 83.934 13.4752 83.1917 13.4752C82.4495 13.4752 81.8478 14.0769 81.8478 14.8191C81.8478 15.5613 82.4495 16.163 83.1917 16.163Z" fill="#5D3FD3"/>
<path d="M160.029 144.909H157.471L157.015 142.494L155.845 144.909H149.061C148.736 144.909 148.419 144.805 148.157 144.612C147.895 144.419 147.702 144.148 147.605 143.838C147.508 143.527 147.513 143.194 147.619 142.886C147.725 142.579 147.927 142.314 148.194 142.129L153.612 138.387V135.946L159.31 136.286L160.029 144.909Z" fill="#2F2E41"/>
<path d="M182.695 138.922L180.546 140.31L178.852 138.529L179.18 141.192L173.481 144.872C173.208 145.048 172.885 145.133 172.561 145.113C172.236 145.093 171.926 144.97 171.676 144.762C171.427 144.553 171.25 144.271 171.173 143.955C171.095 143.639 171.12 143.307 171.245 143.006L173.766 136.924L172.442 134.873L177.414 132.068L182.695 138.922Z" fill="#2F2E41"/>
</g>
<defs>
<clipPath id="clip0_417_47">
<rect width="200" height="145.159" fill="white"/>
</clipPath>
</defs>
</svg>
