<svg width="240" height="196" viewBox="0 0 240 196" fill="none" xmlns="http://www.w3.org/2000/svg">
<g clip-path="url(#clip0_413_184)">
<path d="M144.808 181.062C148.283 183.39 152.242 195.161 152.242 195.161C152.242 195.161 139.85 195.969 136.376 193.642C135.55 193.088 134.84 192.377 134.289 191.549C133.737 190.722 133.354 189.794 133.161 188.818C132.968 187.842 132.97 186.838 133.165 185.863C133.361 184.887 133.746 183.96 134.3 183.134C134.854 182.308 135.565 181.599 136.393 181.047C137.221 180.496 138.149 180.113 139.125 179.921C140.101 179.728 141.105 179.73 142.08 179.926C143.055 180.122 143.982 180.508 144.808 181.062V181.062Z" fill="#F1F1F1"/>
<path d="M152.383 195.072L152.189 195.227C145.107 186.343 134.421 183.275 134.314 183.245L134.381 183.006C134.489 183.036 145.25 186.124 152.383 195.072Z" fill="white"/>
<path d="M163.39 176.366C163.169 182.15 152.172 195.36 152.172 195.36C152.172 195.36 142.225 181.344 142.445 175.562C142.552 172.784 143.758 170.163 145.797 168.274C147.836 166.386 150.542 165.385 153.32 165.492C156.097 165.598 158.719 166.804 160.607 168.843C162.496 170.883 163.497 173.589 163.39 176.366V176.366Z" fill="#F1F1F1"/>
<path d="M152.379 195.462L152.056 195.345C157.383 180.552 153.242 165.733 153.199 165.585L153.53 165.49C153.572 165.639 157.745 180.561 152.379 195.462Z" fill="white"/>
<path d="M123.906 143.453H29.6628C27.9838 143.451 26.3741 142.783 25.1869 141.596C23.9997 140.409 23.3319 138.799 23.33 137.12V29.4189C23.3319 27.7398 23.9997 26.1301 25.1869 24.9429C26.3741 23.7557 27.9838 23.0878 29.6628 23.0859H123.906C125.585 23.0878 127.195 23.7557 128.382 24.9429C129.569 26.1301 130.237 27.7398 130.239 29.4189V137.12C130.237 138.799 129.569 140.409 128.382 141.596C127.195 142.783 125.585 143.451 123.906 143.453V143.453Z" fill="#E6E6E6"/>
<path d="M119.502 138.175H34.0666C32.5759 138.173 31.1466 137.58 30.0925 136.526C29.0384 135.472 28.4454 134.043 28.4437 132.552V33.987C28.4454 32.4962 29.0384 31.067 30.0925 30.0129C31.1466 28.9587 32.5759 28.3658 34.0666 28.3641H119.502C120.993 28.3658 122.422 28.9587 123.476 30.0129C124.531 31.067 125.124 32.4962 125.125 33.987V132.552C125.124 134.043 124.531 135.472 123.476 136.526C122.422 137.58 120.993 138.173 119.502 138.175V138.175Z" fill="white"/>
<path d="M116.103 42.3926H73.0037C72.8189 42.3929 72.636 42.3567 72.4652 42.2862C72.2944 42.2157 72.1392 42.1122 72.0085 41.9816C71.8777 41.8511 71.774 41.696 71.7033 41.5254C71.6325 41.3547 71.5961 41.1718 71.5961 40.987C71.5961 40.8022 71.6325 40.6193 71.7033 40.4486C71.774 40.2779 71.8777 40.1229 72.0085 39.9924C72.1392 39.8618 72.2944 39.7583 72.4652 39.6878C72.636 39.6173 72.8189 39.5811 73.0037 39.5814H116.103C116.288 39.5811 116.471 39.6173 116.642 39.6878C116.813 39.7583 116.968 39.8618 117.099 39.9924C117.229 40.1229 117.333 40.2779 117.404 40.4486C117.475 40.6193 117.511 40.8022 117.511 40.987C117.511 41.1718 117.475 41.3547 117.404 41.5254C117.333 41.696 117.229 41.8511 117.099 41.9816C116.968 42.1122 116.813 42.2157 116.642 42.2862C116.471 42.3567 116.288 42.3929 116.103 42.3926V42.3926Z" fill="#E4E4E4"/>
<path d="M116.103 47.9469H73.0036C72.6308 47.9469 72.2732 47.7988 72.0096 47.5352C71.746 47.2716 71.5979 46.9141 71.5979 46.5413C71.5979 46.1684 71.746 45.8109 72.0096 45.5473C72.2732 45.2837 72.6308 45.1356 73.0036 45.1356H116.103C116.476 45.1356 116.834 45.2837 117.097 45.5473C117.361 45.8109 117.509 46.1684 117.509 46.5413C117.509 46.9141 117.361 47.2716 117.097 47.5352C116.834 47.7988 116.476 47.9469 116.103 47.9469Z" fill="#E4E4E4"/>
<path d="M91.6863 53.5013H73.0036C72.6308 53.5013 72.2732 53.3532 72.0096 53.0896C71.746 52.8259 71.5979 52.4684 71.5979 52.0956C71.5979 51.7228 71.746 51.3652 72.0096 51.1016C72.2732 50.838 72.6308 50.6899 73.0036 50.6899H91.6863C92.0592 50.6899 92.4167 50.838 92.6803 51.1016C92.9439 51.3652 93.092 51.7228 93.092 52.0956C93.092 52.4684 92.9439 52.8259 92.6803 53.0896C92.4167 53.3532 92.0592 53.5013 91.6863 53.5013Z" fill="#E4E4E4"/>
<path d="M110.906 75.9344H42.8649C42.6802 75.9347 42.4972 75.8985 42.3264 75.828C42.1556 75.7575 42.0004 75.654 41.8697 75.5234C41.739 75.3929 41.6352 75.2378 41.5645 75.0672C41.4937 74.8965 41.4573 74.7136 41.4573 74.5288C41.4573 74.344 41.4937 74.1611 41.5645 73.9904C41.6352 73.8197 41.739 73.6647 41.8697 73.5342C42.0004 73.4036 42.1556 73.3001 42.3264 73.2296C42.4972 73.1591 42.6802 73.1229 42.8649 73.1232H110.906C111.091 73.1229 111.274 73.1591 111.445 73.2296C111.615 73.3001 111.771 73.4036 111.901 73.5342C112.032 73.6647 112.136 73.8197 112.207 73.9904C112.277 74.1611 112.314 74.344 112.314 74.5288C112.314 74.7136 112.277 74.8965 112.207 75.0672C112.136 75.2378 112.032 75.3929 111.901 75.5234C111.771 75.654 111.615 75.7575 111.445 75.828C111.274 75.8985 111.091 75.9347 110.906 75.9344Z" fill="#E4E4E4"/>
<path d="M110.906 81.4888H42.8649C42.4921 81.4888 42.1346 81.3407 41.8709 81.077C41.6073 80.8134 41.4592 80.4559 41.4592 80.0831C41.4592 79.7103 41.6073 79.3527 41.8709 79.0891C42.1346 78.8255 42.4921 78.6774 42.8649 78.6774H110.906C111.279 78.6774 111.636 78.8255 111.9 79.0891C112.164 79.3527 112.312 79.7103 112.312 80.0831C112.312 80.4559 112.164 80.8134 111.9 81.077C111.636 81.3407 111.279 81.4888 110.906 81.4888V81.4888Z" fill="#E4E4E4"/>
<path d="M110.906 94.0969H42.865C42.4922 94.0969 42.1347 93.9488 41.871 93.6852C41.6074 93.4216 41.4594 93.0641 41.4594 92.6913C41.4594 92.3185 41.6074 91.961 41.871 91.6973C42.1347 91.4337 42.4922 91.2856 42.865 91.2856H110.906C111.279 91.2856 111.636 91.4337 111.9 91.6973C112.164 91.961 112.312 92.3185 112.312 92.6913C112.312 93.0641 112.164 93.4216 111.9 93.6852C111.636 93.9488 111.279 94.0969 110.906 94.0969Z" fill="#E4E4E4"/>
<path d="M110.906 99.6512H42.8649C42.4921 99.6512 42.1346 99.5031 41.8709 99.2395C41.6073 98.9759 41.4592 98.6184 41.4592 98.2455C41.4592 97.8727 41.6073 97.5152 41.8709 97.2516C42.1346 96.9879 42.4921 96.8398 42.8649 96.8398H110.906C111.279 96.8398 111.636 96.9879 111.9 97.2516C112.164 97.5152 112.312 97.8727 112.312 98.2455C112.312 98.6184 112.164 98.9759 111.9 99.2395C111.636 99.5031 111.279 99.6512 110.906 99.6512V99.6512Z" fill="#E4E4E4"/>
<path d="M110.906 112.259H42.865C42.4922 112.259 42.1347 112.111 41.871 111.848C41.6074 111.584 41.4594 111.226 41.4594 110.854C41.4594 110.481 41.6074 110.123 41.871 109.86C42.1347 109.596 42.4922 109.448 42.865 109.448H110.906C111.279 109.448 111.636 109.596 111.9 109.86C112.164 110.123 112.312 110.481 112.312 110.854C112.312 111.226 112.164 111.584 111.9 111.848C111.636 112.111 111.279 112.259 110.906 112.259Z" fill="#E4E4E4"/>
<path d="M110.906 117.814H42.8649C42.4921 117.814 42.1346 117.666 41.8709 117.402C41.6073 117.138 41.4592 116.781 41.4592 116.408C41.4592 116.035 41.6073 115.678 41.8709 115.414C42.1346 115.15 42.4921 115.002 42.8649 115.002H110.906C111.279 115.002 111.636 115.15 111.9 115.414C112.164 115.678 112.312 116.035 112.312 116.408C112.312 116.781 112.164 117.138 111.9 117.402C111.636 117.666 111.279 117.814 110.906 117.814Z" fill="#E4E4E4"/>
<path d="M110.894 133.199H92.2114C91.8385 133.199 91.481 133.051 91.2174 132.787C90.9538 132.524 90.8057 132.166 90.8057 131.793C90.8057 131.42 90.9538 131.063 91.2174 130.799C91.481 130.536 91.8385 130.388 92.2114 130.388H110.894C111.267 130.388 111.624 130.536 111.888 130.799C112.152 131.063 112.3 131.42 112.3 131.793C112.3 132.166 112.152 132.524 111.888 132.787C111.624 133.051 111.267 133.199 110.894 133.199Z" fill="#5D3FD3"/>
<path d="M61.0728 46.7059C61.0767 49.7246 60.0547 52.6551 58.1745 55.0168C57.5663 55.7855 56.874 56.4836 56.1103 57.0981C54.0264 58.7886 51.4802 59.8099 48.8057 60.028C48.4416 60.0595 48.0745 60.0739 47.7047 60.0739C46.9719 60.074 46.2403 60.0136 45.5174 59.8933C45.2623 59.8531 45.0129 59.8044 44.7634 59.7471C44.3293 59.6504 43.9005 59.5308 43.4791 59.3887C42.1123 58.9338 40.8284 58.2599 39.6776 57.3934C39.3709 57.1641 39.0757 56.9204 38.789 56.6624C38.4384 56.3514 38.1062 56.0201 37.7941 55.6704C37.711 55.5787 37.6278 55.4841 37.5476 55.3895C36.1488 53.7523 35.1663 51.8013 34.6838 49.7026C34.2013 47.604 34.2331 45.4198 34.7764 43.336C35.3197 41.2523 36.3586 39.3307 37.8044 37.7349C39.2503 36.1391 41.0604 34.9162 43.0805 34.1705C45.1007 33.4249 47.2712 33.1784 49.4071 33.4521C51.5431 33.7258 53.5812 34.5116 55.3481 35.7426C57.115 36.9736 58.5582 38.6133 59.555 40.5222C60.5517 42.431 61.0724 44.5525 61.0728 46.7059L61.0728 46.7059Z" fill="#E4E4E4"/>
<path d="M47.2394 51.2681C50.2649 51.2681 52.7176 48.8154 52.7176 45.7899C52.7176 42.7644 50.2649 40.3117 47.2394 40.3117C44.2139 40.3117 41.7612 42.7644 41.7612 45.7899C41.7612 48.8154 44.2139 51.2681 47.2394 51.2681Z" fill="#9E616A"/>
<path d="M53.3381 43.1194C53.363 42.6299 53.2248 42.146 52.9453 41.7434L52.7475 41.4624C52.0336 40.0863 50.8554 38.8479 49.9926 37.942C49.3446 37.2625 48.6968 36.9357 48.0745 36.9672C47.6218 36.9996 47.2002 37.2098 46.9021 37.5521C46.0828 37.502 45.2666 37.6921 44.5537 38.0989C43.8408 38.5058 43.2621 39.1118 42.8885 39.8427C40.2654 41.2273 41.048 45.3154 41.0566 45.3584L41.6903 46.422L41.7619 46.2873C41.7619 46.2844 41.7705 46.273 41.7819 46.25C41.9053 46.0293 42.5761 44.8023 43.029 44.0254C43.1944 43.7604 43.4143 43.5336 43.6741 43.3603C44.0983 43.0704 44.586 42.8865 45.096 42.8242L46.4893 42.6435L45.9618 43.4348H49.7574L51.2166 43.2628C51.3628 43.8619 52.5211 46.1869 52.6614 46.4679L52.6729 46.4908L52.7503 46.6485L53.1833 45.4588C53.4361 44.7055 53.4894 43.8995 53.3381 43.1194V43.1194Z" fill="#2F2E41"/>
<path d="M39.7179 57.422C39.953 57.1124 41.1714 55.6675 43.9751 54.9021L45.4601 53.2479L51.4145 52.299L54.4448 53.9732L58.1745 55.0168C57.5664 55.7855 56.874 56.4836 56.1104 57.0981C54.0264 58.7886 51.4802 59.8099 48.8057 60.028C48.4416 60.0595 48.0747 60.0739 47.7048 60.0739C46.972 60.074 46.2404 60.0136 45.5175 59.8933C45.2623 59.8531 45.0129 59.8044 44.7635 59.747C44.3293 59.6504 43.9006 59.5308 43.4791 59.3887C42.1278 58.9397 40.8577 58.2756 39.7179 57.422C39.7035 57.4134 39.6921 57.402 39.6777 57.3934L39.7179 57.422Z" fill="#5D3FD3"/>
<path d="M152.718 6.70512H0.85066C0.625127 6.70487 0.408902 6.61517 0.249426 6.45569C0.0899493 6.29622 0.000245862 6.07999 0 5.85446V0.850658C0.000245862 0.625125 0.0899493 0.4089 0.249426 0.249423C0.408902 0.0899471 0.625127 0.000245862 0.85066 0H152.718C152.944 0.000245862 153.16 0.0899471 153.32 0.249423C153.479 0.4089 153.569 0.625125 153.569 0.850658V5.85446C153.569 6.07999 153.479 6.29622 153.32 6.45569C153.16 6.61517 152.944 6.70487 152.718 6.70512Z" fill="#5D3FD3"/>
<path d="M4.93673 4.3162C5.60373 4.3162 6.14445 3.77549 6.14445 3.10848C6.14445 2.44147 5.60373 1.90076 4.93673 1.90076C4.26972 1.90076 3.729 2.44147 3.729 3.10848C3.729 3.77549 4.26972 4.3162 4.93673 4.3162Z" fill="white"/>
<path d="M9.52083 4.3162C10.1878 4.3162 10.7286 3.77549 10.7286 3.10848C10.7286 2.44147 10.1878 1.90076 9.52083 1.90076C8.85383 1.90076 8.31311 2.44147 8.31311 3.10848C8.31311 3.77549 8.85383 4.3162 9.52083 4.3162Z" fill="white"/>
<path d="M14.1052 4.3162C14.7722 4.3162 15.3129 3.77549 15.3129 3.10848C15.3129 2.44147 14.7722 1.90076 14.1052 1.90076C13.4382 1.90076 12.8975 2.44147 12.8975 3.10848C12.8975 3.77549 13.4382 4.3162 14.1052 4.3162Z" fill="white"/>
<path d="M148.227 2.27723H142.948C142.845 2.27635 142.746 2.23476 142.674 2.16153C142.601 2.0883 142.56 1.98934 142.56 1.88621C142.56 1.78309 142.601 1.68413 142.674 1.6109C142.746 1.53766 142.845 1.49608 142.948 1.49519H148.227C148.278 1.49475 148.33 1.50454 148.377 1.52399C148.425 1.54344 148.469 1.57218 148.505 1.60853C148.542 1.64488 148.571 1.68814 148.591 1.7358C148.611 1.78346 148.621 1.83458 148.621 1.88621C148.621 1.93785 148.611 1.98897 148.591 2.03663C148.571 2.08429 148.542 2.12754 148.505 2.1639C148.469 2.20025 148.425 2.22898 148.377 2.24844C148.33 2.26789 148.278 2.27768 148.227 2.27723V2.27723Z" fill="white"/>
<path d="M148.227 3.74354H142.948C142.844 3.74354 142.745 3.70235 142.671 3.62902C142.598 3.55568 142.557 3.45623 142.557 3.35252C142.557 3.24882 142.598 3.14936 142.671 3.07603C142.745 3.0027 142.844 2.9615 142.948 2.9615H148.227C148.278 2.96106 148.33 2.97085 148.377 2.9903C148.425 3.00975 148.469 3.03848 148.505 3.07484C148.542 3.11119 148.571 3.15445 148.591 3.20211C148.611 3.24977 148.621 3.30089 148.621 3.35252C148.621 3.40415 148.611 3.45528 148.591 3.50294C148.571 3.5506 148.542 3.59385 148.505 3.63021C148.469 3.66656 148.425 3.69529 148.377 3.71475C148.33 3.7342 148.278 3.74398 148.227 3.74354V3.74354Z" fill="white"/>
<path d="M148.227 5.2099H142.948C142.845 5.20906 142.746 5.1675 142.674 5.09426C142.601 5.02102 142.56 4.92204 142.56 4.81888C142.56 4.71572 142.601 4.61674 142.674 4.5435C142.746 4.47026 142.845 4.42869 142.948 4.42786H148.227C148.33 4.42869 148.429 4.47026 148.501 4.5435C148.574 4.61674 148.615 4.71572 148.615 4.81888C148.615 4.92204 148.574 5.02102 148.501 5.09426C148.429 5.1675 148.33 5.20906 148.227 5.2099V5.2099Z" fill="white"/>
<path d="M189.92 134.561C189.678 134.296 189.496 133.982 189.387 133.64C189.279 133.297 189.247 132.936 189.294 132.58C189.34 132.224 189.465 131.882 189.657 131.579C189.85 131.277 190.107 131.02 190.41 130.827L188.398 122.335L192.657 123.891L193.915 131.717C194.206 132.247 194.291 132.865 194.156 133.455C194.02 134.044 193.674 134.563 193.181 134.913C192.689 135.264 192.085 135.421 191.484 135.357C190.883 135.292 190.327 135.008 189.92 134.561V134.561Z" fill="#9E616A"/>
<path d="M179.677 98.9756L181.387 103.371C181.387 103.371 180.654 107.767 181.875 108.744C183.096 109.721 182.608 109.721 182.608 110.454C182.65 110.979 182.802 111.49 183.054 111.953C183.307 112.416 183.654 112.82 184.073 113.14C185.05 113.873 189.446 128.77 189.446 128.77H193.842C193.7 127.635 193.7 126.486 193.842 125.351C194.086 123.642 193.109 119.246 192.62 118.513C192.132 117.78 192.62 116.803 192.62 115.338C192.62 113.873 191.644 113.14 191.644 110.698C191.644 108.256 188.713 89.2069 188.957 87.0089C189.201 84.811 186.515 82.8572 186.515 82.8572H184.073L179.677 98.9756Z" fill="#E4E4E4"/>
<path d="M190.919 191.855H187.67L186.125 179.323L190.92 179.323L190.919 191.855Z" fill="#9E616A"/>
<path d="M191.748 195.004L181.272 195.003V194.871C181.272 193.79 181.702 192.753 182.466 191.988C183.231 191.223 184.268 190.794 185.35 190.794H185.35L187.263 189.342L190.834 190.794L191.748 190.794L191.748 195.004Z" fill="#2F2E41"/>
<path d="M161.198 191.762L158.148 190.645L161.001 178.346L165.504 179.993L161.198 191.762Z" fill="#9E616A"/>
<path d="M160.895 195.004L151.057 191.405L151.102 191.28C151.474 190.265 152.234 189.438 153.214 188.983C154.195 188.527 155.317 188.48 156.332 188.852L156.333 188.852L158.628 188.146L161.482 190.736L162.341 191.05L160.895 195.004Z" fill="#2F2E41"/>
<path d="M183.761 133.256C183.761 133.256 181.563 144.002 185.227 143.025C188.89 142.048 187.425 132.768 187.425 132.768L183.761 133.256Z" fill="#A0616A"/>
<path d="M167.643 124.343C167.643 124.343 164.713 128.25 164.713 130.448C164.713 132.646 163.736 152.183 163.736 152.183C163.736 152.183 156.321 181.277 157.786 182.742C159.251 184.207 164.38 185.673 165.112 184.94C165.845 184.207 172.283 154.137 172.283 154.137L178.389 137.774L184.006 161.219L184.494 186.129C184.494 186.129 190.6 187.595 191.821 186.618C193.042 185.641 193.286 161.952 191.821 153.649C190.355 145.345 192.065 126.296 192.065 126.296L167.643 124.343Z" fill="#2F2E41"/>
<path d="M177.437 72.2021C181.483 72.2021 184.764 68.9219 184.764 64.8756C184.764 60.8293 181.483 57.5491 177.437 57.5491C173.391 57.5491 170.11 60.8293 170.11 64.8756C170.11 68.9219 173.391 72.2021 177.437 72.2021Z" fill="#9E616A"/>
<path d="M168.132 82.8255C168.132 82.8255 170.241 79.6824 174.393 75.5307C176.591 74.798 180.399 75.225 181.719 75.5307C187.825 83.5898 188.209 83.0543 189.798 87.5572C190.21 88.7249 190.416 89.8468 190.233 90.7626C189.501 94.4258 191.821 124.098 192.065 125.075C192.309 126.052 194.019 127.273 192.309 127.273C190.6 127.273 164.712 126.296 165.201 125.564C165.689 124.831 168.132 82.8255 168.132 82.8255Z" fill="#E4E4E4"/>
<path opacity="0.1" d="M167.013 125.241L174.359 109.079L170.686 126.268L167.013 125.241Z" fill="black"/>
<path d="M175.221 71.6631C175.906 71.1526 176.538 70.5729 177.105 69.9332C177.675 69.2877 178.031 68.4823 178.126 67.6268C178.168 67.2002 178.101 66.77 177.932 66.3763C177.762 65.9826 177.496 65.6381 177.158 65.375C176.46 64.882 175.396 64.9107 174.817 65.5388C175.097 64.6342 175.352 63.5673 174.785 62.8088C174.269 62.1184 173.307 62.0011 172.476 61.7735C170.873 61.3273 169.494 60.2998 168.608 58.8917L170.019 59.1838L169.862 58.1776L171.031 58.5843L171.042 57.1828L172.249 57.8582C173.727 56.5033 175.674 55.7777 177.678 55.8352C178.689 55.852 179.68 56.1239 180.557 56.6256C181.437 57.1344 182.103 57.9439 182.433 58.905C183.055 58.26 184.162 58.3099 184.903 58.814C185.643 59.3181 186.078 60.1613 186.376 61.0056C186.968 62.6248 187.105 64.3748 186.774 66.0665C186.434 67.7622 185.52 69.289 184.187 70.3907C182.962 71.3253 181.504 71.9052 179.972 72.0671C178.447 72.2252 176.906 72.1594 175.4 71.8716" fill="#2F2E41"/>
<path d="M164.726 134.529C164.969 134.265 165.151 133.95 165.259 133.608C165.368 133.266 165.4 132.904 165.353 132.548C165.306 132.192 165.182 131.851 164.989 131.548C164.796 131.245 164.539 130.988 164.236 130.795L166.249 122.304L161.989 123.86L160.731 131.685C160.441 132.215 160.356 132.834 160.491 133.423C160.626 134.012 160.973 134.531 161.465 134.882C161.958 135.232 162.562 135.39 163.163 135.325C163.764 135.26 164.32 134.977 164.726 134.529V134.529Z" fill="#9E616A"/>
<path d="M170.574 82.8256H168.132C168.132 82.8256 165.445 84.7793 165.689 86.9773C165.934 89.1752 163.003 108.224 163.003 110.666C163.003 113.109 162.026 113.841 162.026 115.306C162.026 116.772 162.515 117.749 162.026 118.481C161.538 119.214 160.561 123.61 160.805 125.319C160.947 126.455 160.947 127.603 160.805 128.738H165.201C165.201 128.738 169.597 113.841 170.574 113.109C170.993 112.789 171.34 112.384 171.592 111.921C171.845 111.458 171.997 110.948 172.039 110.422C172.039 109.689 171.551 109.689 172.772 108.713C173.993 107.736 173.26 103.34 173.26 103.34L174.97 98.9439L170.574 82.8256Z" fill="#E4E4E4"/>
</g>
<defs>
<clipPath id="clip0_413_184">
<rect width="240" height="195.685" fill="white"/>
</clipPath>
</defs>
</svg>
