<svg width="210" height="180" viewBox="0 0 210 180" fill="none" xmlns="http://www.w3.org/2000/svg">
<path d="M206.744 141.649L110.12 174.28C108.917 174.685 107.602 174.597 106.464 174.034C105.326 173.471 104.458 172.48 104.05 171.279L59.2929 38.9498C58.8877 37.7474 58.9764 36.4335 59.5395 35.2963C60.1026 34.1592 61.0941 33.2916 62.2965 32.8841L158.92 0.25232C160.123 -0.152555 161.438 -0.0639415 162.576 0.498718C163.714 1.06138 164.582 2.05213 164.99 3.25362L209.747 135.583C210.153 136.785 210.064 138.099 209.501 139.236C208.938 140.373 207.946 141.241 206.744 141.649V141.649Z" fill="#E6E6E6"/>
<path d="M204.278 139.205L110.597 170.843C109.784 171.116 108.896 171.056 108.127 170.676C107.358 170.296 106.771 169.627 106.496 168.815L62.7331 39.4262C62.4593 38.6138 62.5192 37.726 62.8997 36.9577C63.2802 36.1893 63.9501 35.6032 64.7625 35.3278L158.443 3.68988C159.256 3.41632 160.145 3.47619 160.914 3.85636C161.683 4.23654 162.269 4.90597 162.545 5.71778L206.307 135.106C206.581 135.919 206.521 136.807 206.141 137.575C205.76 138.343 205.09 138.929 204.278 139.205V139.205Z" fill="white"/>
<path d="M180.728 179.612H78.7347C77.4651 179.611 76.2478 179.106 75.35 178.209C74.4522 177.312 73.9472 176.095 73.9457 174.827V35.144C73.9472 33.8752 74.4522 32.6589 75.35 31.7617C76.2478 30.8646 77.4651 30.36 78.7347 30.3586H180.728C181.997 30.36 183.215 30.8646 184.112 31.7617C185.01 32.6589 185.515 33.8752 185.517 35.144V174.827C185.515 176.095 185.01 177.312 184.112 178.209C183.215 179.106 181.997 179.611 180.728 179.612V179.612Z" fill="#CCCCCC"/>
<path d="M179.174 176.508H80.2879C79.43 176.507 78.6076 176.166 78.0009 175.56C77.3943 174.954 77.0531 174.132 77.0521 173.275V36.696C77.0531 35.8388 77.3943 35.0169 78.0009 34.4107C78.6076 33.8046 79.43 33.4636 80.2879 33.4626H179.174C180.032 33.4636 180.855 33.8046 181.461 34.4107C182.068 35.0169 182.409 35.8388 182.41 36.696V173.275C182.409 174.132 182.068 174.954 181.461 175.56C180.855 176.166 180.032 176.507 179.174 176.508V176.508Z" fill="white"/>
<path d="M158.108 72.2056H92.7963C92.2461 72.2056 91.7184 71.9872 91.3294 71.5984C90.9403 71.2097 90.7217 70.6824 90.7217 70.1326C90.7217 69.5828 90.9403 69.0555 91.3294 68.6667C91.7184 68.278 92.2461 68.0596 92.7963 68.0596H158.108C158.659 68.0596 159.186 68.278 159.575 68.6667C159.964 69.0555 160.183 69.5828 160.183 70.1326C160.183 70.6824 159.964 71.2097 159.575 71.5984C159.186 71.9872 158.659 72.2056 158.108 72.2056Z" fill="#CCCCCC"/>
<path d="M166.666 79.2021H92.7963C92.5239 79.2021 92.2541 79.1485 92.0024 79.0443C91.7507 78.9401 91.522 78.7874 91.3294 78.5949C91.1367 78.4024 90.9839 78.1739 90.8797 77.9224C90.7754 77.6709 90.7217 77.4013 90.7217 77.1291C90.7217 76.8568 90.7754 76.5873 90.8797 76.3357C90.9839 76.0842 91.1367 75.8557 91.3294 75.6632C91.522 75.4707 91.7507 75.318 92.0024 75.2138C92.2541 75.1097 92.5239 75.056 92.7963 75.056H166.666C167.216 75.056 167.744 75.2744 168.133 75.6632C168.522 76.052 168.741 76.5793 168.741 77.1291C168.741 77.6789 168.522 78.2061 168.133 78.5949C167.744 78.9837 167.216 79.2021 166.666 79.2021V79.2021Z" fill="#CCCCCC"/>
<path d="M158.108 103.56H92.7963C92.2465 103.559 91.7194 103.341 91.3309 102.952C90.9423 102.563 90.7241 102.036 90.7241 101.487C90.7241 100.938 90.9423 100.411 91.3309 100.022C91.7194 99.6333 92.2465 99.4146 92.7963 99.414H158.108C158.659 99.414 159.186 99.6324 159.575 100.021C159.964 100.41 160.183 100.937 160.183 101.487C160.183 102.037 159.964 102.564 159.575 102.953C159.186 103.342 158.659 103.56 158.108 103.56Z" fill="#5D3FD3"/>
<path d="M166.666 110.557H92.7963C92.2465 110.556 91.7194 110.337 91.3309 109.949C90.9423 109.56 90.7241 109.033 90.7241 108.483C90.7241 107.934 90.9423 107.407 91.3309 107.018C91.7194 106.63 92.2465 106.411 92.7963 106.41H166.666C167.216 106.41 167.744 106.629 168.133 107.018C168.522 107.406 168.741 107.934 168.741 108.483C168.741 109.033 168.522 109.561 168.133 109.949C167.744 110.338 167.216 110.557 166.666 110.557V110.557Z" fill="#CCCCCC"/>
<path d="M158.108 134.915H92.7963C92.2465 134.914 91.7194 134.695 91.3309 134.307C90.9423 133.918 90.7241 133.391 90.7241 132.842C90.7241 132.292 90.9423 131.765 91.3309 131.376C91.7194 130.988 92.2465 130.769 92.7963 130.768H158.108C158.659 130.768 159.186 130.987 159.575 131.376C159.964 131.764 160.183 132.292 160.183 132.842C160.183 133.391 159.964 133.919 159.575 134.307C159.186 134.696 158.659 134.915 158.108 134.915Z" fill="#CCCCCC"/>
<path d="M166.666 141.911H92.7963C92.2461 141.911 91.7184 141.693 91.3294 141.304C90.9403 140.915 90.7217 140.388 90.7217 139.838C90.7217 139.288 90.9403 138.761 91.3294 138.372C91.7184 137.983 92.2461 137.765 92.7963 137.765H166.666C167.216 137.765 167.744 137.983 168.133 138.372C168.522 138.761 168.741 139.288 168.741 139.838C168.741 140.388 168.522 140.915 168.133 141.304C167.744 141.693 167.216 141.911 166.666 141.911V141.911Z" fill="#CCCCCC"/>
<path d="M52.9359 95.8707H37.9217C37.6129 95.8703 37.3168 95.7476 37.0984 95.5294C36.88 95.3112 36.7572 95.0153 36.7568 94.7067V88.2399C36.7568 85.9417 37.6705 83.7376 39.2968 82.1125C40.9231 80.4874 43.1289 79.5744 45.4288 79.5744C47.7288 79.5744 49.9345 80.4874 51.5608 82.1125C53.1871 83.7376 54.1008 85.9417 54.1008 88.2399V94.7067C54.1005 95.0153 53.9776 95.3112 53.7592 95.5294C53.5408 95.7476 53.2447 95.8703 52.9359 95.8707Z" fill="#2F2E41"/>
<path d="M76.1091 129.62C75.729 129.6 75.358 129.497 75.022 129.319C74.686 129.14 74.3934 128.89 74.1646 128.586C73.9358 128.282 73.7765 127.932 73.6979 127.56C73.6192 127.188 73.6232 126.803 73.7095 126.433L65.8852 121.502L70.2644 119.521L77.0231 124.507C77.6361 124.693 78.1596 125.097 78.4942 125.643C78.8289 126.189 78.9515 126.839 78.8388 127.469C78.7262 128.099 78.3861 128.666 77.8829 129.063C77.3798 129.459 76.7487 129.658 76.1091 129.62V129.62Z" fill="#FFB8B8"/>
<path d="M70.7098 125.597C70.4438 125.572 70.1904 125.472 69.9798 125.308L48.4553 108.636L45.68 103.704C45.4116 103.229 45.2911 102.685 45.3339 102.142C45.3767 101.599 45.581 101.081 45.9204 100.654V100.654C46.1554 100.357 46.4491 100.113 46.7832 99.9347C47.1173 99.7568 47.4846 99.6499 47.862 99.6206C48.2395 99.5912 48.6189 99.6401 48.9765 99.7642C49.3341 99.8883 49.6622 100.085 49.9402 100.342L73.9318 119.786C74.087 119.891 74.2197 120.025 74.3221 120.182C74.4244 120.339 74.4944 120.515 74.5279 120.699C74.5614 120.883 74.5578 121.072 74.5172 121.255C74.4766 121.437 74.3999 121.61 74.2916 121.763L71.9914 125.008C71.8822 125.164 71.7423 125.295 71.5804 125.395C71.4184 125.494 71.2379 125.56 71.0497 125.587C70.9372 125.604 70.8231 125.607 70.7098 125.597V125.597Z" fill="#2F2E41"/>
<path d="M19.9828 173.329L22.9249 174.519L28.9163 163.746L24.5743 161.99L19.9828 173.329Z" fill="#FFB8B8"/>
<path d="M19.6211 172.066L25.4148 174.408L25.415 174.408C25.8999 174.605 26.3413 174.894 26.7142 175.261C27.0871 175.627 27.384 176.064 27.5882 176.545C27.7923 177.026 27.8995 177.543 27.9038 178.065C27.9081 178.588 27.8093 179.106 27.613 179.591L27.5645 179.711L18.0786 175.875L19.6211 172.066Z" fill="#2F2E41"/>
<path d="M54.2631 176.637L57.4368 176.636L58.9467 164.404L54.2626 164.405L54.2631 176.637Z" fill="#FFB8B8"/>
<path d="M53.4537 175.601L59.7037 175.601H59.7039C60.227 175.601 60.7449 175.704 61.2282 175.904C61.7114 176.104 62.1505 176.397 62.5204 176.767C62.8902 177.136 63.1836 177.575 63.3838 178.058C63.5839 178.541 63.687 179.058 63.687 179.581V179.71L53.4539 179.711L53.4537 175.601Z" fill="#2F2E41"/>
<path d="M56.8779 169.721C55.6174 169.721 54.3813 169.208 53.6992 168.866C53.5223 168.779 53.368 168.652 53.2481 168.496C53.1283 168.339 53.046 168.157 53.0079 167.964L46.3184 134.262L28.964 166.708C28.8081 167 28.5458 167.221 28.2315 167.325C24.4938 168.573 22.4553 166.609 21.7522 165.707C21.6092 165.522 21.52 165.302 21.4945 165.069C21.469 164.837 21.5082 164.602 21.6078 164.39L29.6452 146.943L34.505 130.369L39.4173 118.24L39.5245 118.251L55.9506 119.979L57.948 130.956L59.9596 167.504C59.9775 167.795 59.8945 168.084 59.7244 168.321C59.4028 168.772 58.9744 169.135 58.4776 169.38C57.9809 169.624 57.4312 169.741 56.8779 169.721V169.721Z" fill="#2F2E41"/>
<path d="M47.569 95.7724C51.0805 95.7724 53.927 92.928 53.927 89.4192C53.927 85.9104 51.0805 83.066 47.569 83.066C44.0576 83.066 41.2111 85.9104 41.2111 89.4192C41.2111 92.928 44.0576 95.7724 47.569 95.7724Z" fill="#FFB8B8"/>
<path d="M49.7802 125.024C47.0122 125.024 43.5873 123.405 39.5652 120.19L39.4966 120.135L42.3404 97.7176L42.4732 97.7127C46.5408 97.5658 49.8509 98.5978 52.5915 100.875L52.6151 100.9L54.8372 103.755L54.8382 103.807L55.1516 121.342L55.1436 121.366C54.8493 122.169 54.3744 122.893 53.7557 123.483C53.1369 124.073 52.3908 124.514 51.5748 124.77C50.9923 124.942 50.3877 125.028 49.7802 125.024V125.024Z" fill="#5D3FD3"/>
<path d="M53.8742 135.505C53.5635 135.504 53.2616 135.401 53.0153 135.212C52.769 135.022 52.592 134.757 52.5116 134.457L48.6078 119.69L46.1347 133.144C46.0698 133.501 45.8691 133.819 45.5746 134.031C45.2802 134.244 44.9149 134.334 44.5553 134.283L33.7866 132.782C33.5813 132.753 33.3849 132.679 33.2113 132.566C33.0378 132.453 32.8914 132.303 32.7826 132.127C32.6738 131.95 32.6054 131.752 32.582 131.546C32.5587 131.341 32.5812 131.132 32.6478 130.936L38.095 114.893L36.8756 105.493C36.7501 104.526 36.8274 103.542 37.1025 102.606C37.3777 101.669 37.8448 100.8 38.4741 100.054C39.1034 99.3074 39.8812 98.6999 40.7581 98.27C41.6349 97.84 42.5917 97.597 43.5675 97.5563L43.6767 97.5521L48.8563 110.035L49.6801 106.742L50.9694 99.6546L51.1619 99.766C52.9819 100.815 54.4786 102.343 55.4881 104.184C56.4977 106.025 56.9814 108.108 56.8864 110.205L56.5598 117.712L59.4537 133.038C59.5222 133.404 59.4429 133.783 59.233 134.091C59.023 134.398 58.6997 134.611 58.3335 134.681L54.1363 135.48C54.05 135.496 53.9622 135.505 53.8742 135.505Z" fill="#2F2E41"/>
<path d="M56.1524 88.8866H46.9716L46.8775 87.5695L46.4068 88.8866H44.9931L44.8065 86.2761L43.8736 88.8866H41.1382V88.7572C41.1403 86.9399 41.8637 85.1975 43.1497 83.9125C44.4357 82.6274 46.1794 81.9045 47.9981 81.9025H49.2925C51.1112 81.9045 52.8549 82.6274 54.1409 83.9125C55.427 85.1975 56.1504 86.9399 56.1524 88.7572V88.8866Z" fill="#2F2E41"/>
<path d="M50.0007 128.322C50.0003 128.736 50.0891 129.147 50.2612 129.524C50.4333 129.902 50.6846 130.238 50.9981 130.51C51.3116 130.782 51.6799 130.984 52.0782 131.101C52.4765 131.218 52.8953 131.249 53.3064 131.19C53.6857 132.06 54.3108 132.8 55.105 133.32C55.8993 133.84 56.8281 134.117 57.7776 134.117V134.117C58.418 134.117 59.0522 133.991 59.6439 133.746C60.2356 133.501 60.7732 133.142 61.2261 132.689C61.679 132.237 62.0382 131.7 62.2833 131.108C62.5284 130.517 62.6545 129.883 62.6545 129.244V125.021C62.6545 123.934 61.7728 123.57 60.6852 123.57H54.8699C53.7823 123.57 52.9006 123.934 52.9006 125.021V125.424C52.1317 125.425 51.3947 125.73 50.851 126.274C50.3074 126.817 50.0016 127.553 50.0007 128.322V128.322ZM50.7916 128.322C50.7922 127.763 51.0146 127.227 51.41 126.832C51.8054 126.437 52.3414 126.215 52.9006 126.214V129.244C52.9006 129.641 52.949 130.036 53.0449 130.422C52.997 130.425 52.9493 130.429 52.9006 130.429C52.3414 130.428 51.8054 130.206 51.41 129.811C51.0146 129.416 50.7922 128.88 50.7916 128.322H50.7916Z" fill="#5D3FD3"/>
<path d="M52.336 127.625C52.1591 127.288 51.9105 126.994 51.6077 126.764C51.3048 126.534 50.9552 126.373 50.5833 126.292C50.2114 126.211 49.8263 126.213 49.4552 126.297C49.084 126.381 48.7359 126.546 48.4353 126.779L40.6816 121.738L40.7111 126.541L48.0696 130.592C48.4951 131.071 49.0815 131.377 49.7177 131.452C50.3539 131.528 50.9958 131.368 51.5217 131.002C52.0476 130.636 52.4209 130.09 52.571 129.468C52.7211 128.846 52.6375 128.19 52.336 127.625H52.336Z" fill="#FFB8B8"/>
<path d="M43.9404 130.557C43.6314 130.557 43.3351 130.434 43.1167 130.216L33.2435 120.35C32.9281 120.037 32.6979 119.648 32.5748 119.221C32.4517 118.794 32.4398 118.343 32.5402 117.91C33.3853 114.218 35.4447 105.396 36.3142 103.224C36.9488 101.591 38.1234 100.224 39.6429 99.3498L39.6818 99.3303L42.8075 99.9074L43.0829 109.541L39.3072 117.626L47.3356 125.199C47.5469 125.397 47.6764 125.667 47.6988 125.956C47.7212 126.244 47.6349 126.531 47.4567 126.759L44.8611 130.106C44.7598 130.236 44.6318 130.344 44.4857 130.421C44.3396 130.498 44.1787 130.544 44.0137 130.554C43.9892 130.556 43.9647 130.557 43.9404 130.557Z" fill="#2F2E41"/>
<path d="M57.7667 124.903C59.7682 124.903 61.3908 124.671 61.3908 124.386C61.3908 124.1 59.7682 123.868 57.7667 123.868C55.7651 123.868 54.1426 124.1 54.1426 124.386C54.1426 124.671 55.7651 124.903 57.7667 124.903Z" fill="#2F2E41"/>
</svg>
