<svg width="100" height="100" viewBox="0 0 100 100" fill="none" xmlns="http://www.w3.org/2000/svg">
<circle cx="50" cy="50" r="50" fill="white"/>
<path d="M63.6818 40.4091C63.5303 38.7424 62.8561 37.447 61.6591 36.5227C60.4773 35.5833 58.7879 35.1136 56.5909 35.1136C55.1364 35.1136 53.9242 35.303 52.9545 35.6818C51.9848 36.0606 51.2576 36.5833 50.7727 37.25C50.2879 37.9015 50.0379 38.6515 50.0227 39.5C49.9924 40.197 50.1288 40.8106 50.4318 41.3409C50.75 41.8712 51.2045 42.3409 51.7955 42.75C52.4015 43.1439 53.1288 43.4924 53.9773 43.7955C54.8258 44.0985 55.7803 44.3636 56.8409 44.5909L60.8409 45.5C63.1439 46 65.1742 46.6667 66.9318 47.5C68.7045 48.3333 70.1894 49.3258 71.3864 50.4773C72.5985 51.6288 73.5152 52.9545 74.1364 54.4545C74.7576 55.9545 75.0758 57.6364 75.0909 59.5C75.0758 62.4394 74.3333 64.9621 72.8636 67.0682C71.3939 69.1742 69.2803 70.7879 66.5227 71.9091C63.7803 73.0303 60.4697 73.5909 56.5909 73.5909C52.697 73.5909 49.303 73.0076 46.4091 71.8409C43.5152 70.6742 41.2652 68.9015 39.6591 66.5227C38.053 64.1439 37.2273 61.1364 37.1818 57.5H47.9545C48.0455 59 48.447 60.25 49.1591 61.25C49.8712 62.25 50.8485 63.0076 52.0909 63.5227C53.3485 64.0379 54.803 64.2955 56.4545 64.2955C57.9697 64.2955 59.2576 64.0909 60.3182 63.6818C61.3939 63.2727 62.2197 62.7045 62.7955 61.9773C63.3712 61.25 63.6667 60.4167 63.6818 59.4773C63.6667 58.5985 63.3939 57.8485 62.8636 57.2273C62.3333 56.5909 61.5152 56.0455 60.4091 55.5909C59.3182 55.1212 57.9242 54.6894 56.2273 54.2955L51.3636 53.1591C47.3333 52.2348 44.1591 50.7424 41.8409 48.6818C39.5227 46.6061 38.3712 43.803 38.3864 40.2727C38.3712 37.3939 39.1439 34.8712 40.7045 32.7045C42.2652 30.5379 44.4242 28.8485 47.1818 27.6364C49.9394 26.4242 53.0833 25.8182 56.6136 25.8182C60.2197 25.8182 63.3485 26.4318 66 27.6591C68.6667 28.8712 70.7348 30.5758 72.2045 32.7727C73.6742 34.9697 74.4242 37.5151 74.4545 40.4091H63.6818ZM80.7727 73V38.0909H91.8864V73H80.7727ZM86.3409 34.0227C84.7803 34.0227 83.4394 33.5076 82.3182 32.4773C81.197 31.4318 80.6364 30.1742 80.6364 28.7045C80.6364 27.25 81.197 26.0076 82.3182 24.9773C83.4394 23.9318 84.7803 23.4091 86.3409 23.4091C87.9167 23.4091 89.2576 23.9318 90.3636 24.9773C91.4848 26.0076 92.0455 27.25 92.0455 28.7045C92.0455 30.1742 91.4848 31.4318 90.3636 32.4773C89.2576 33.5076 87.9167 34.0227 86.3409 34.0227Z" fill="#5D3FD3"/>
</svg>
